<mxfile host="app.diagrams.net" modified="2024-02-24T12:43:54.425Z" agent="Mozilla/5.0 (Windows NT 10.0; Win64; x64) AppleWebKit/537.36 (KHTML, like Gecko) Chrome/121.0.0.0 Safari/537.36" etag="zZa5m8w7eaJ_6gsokrco" version="23.1.6" type="device">
  <diagram name="Page-1" id="929967ad-93f9-6ef4-fab6-5d389245f69c">
    <mxGraphModel dx="1313" dy="696" grid="1" gridSize="10" guides="1" tooltips="1" connect="1" arrows="1" fold="1" page="1" pageScale="1.5" pageWidth="1169" pageHeight="826" background="none" math="0" shadow="0">
      <root>
        <mxCell id="0" style=";html=1;" />
        <mxCell id="1" style=";html=1;" parent="0" />
        <mxCell id="1672d66443f91eb5-23" value="Museum Beispiel" style="text;strokeColor=#d79b00;fillColor=#ffe6cc;html=1;fontSize=24;fontStyle=1;verticalAlign=middle;align=center;" parent="1" vertex="1">
          <mxGeometry x="550" y="20" width="630" height="40" as="geometry" />
        </mxCell>
        <mxCell id="vkAkZfnKyoBQVsPQu3A6-1" value="Museum" style="swimlane;fontStyle=1;align=center;verticalAlign=top;childLayout=stackLayout;horizontal=1;startSize=26;horizontalStack=0;resizeParent=1;resizeParentMax=0;resizeLast=0;collapsible=1;marginBottom=0;whiteSpace=wrap;html=1;" vertex="1" parent="1">
          <mxGeometry x="784" y="84" width="160" height="88" as="geometry" />
        </mxCell>
        <mxCell id="vkAkZfnKyoBQVsPQu3A6-2" value="- museumName: String&lt;div&gt;- geoefnet:boolean&lt;/div&gt;&lt;div&gt;&lt;br&gt;&lt;/div&gt;" style="text;strokeColor=none;fillColor=none;align=left;verticalAlign=top;spacingLeft=4;spacingRight=4;overflow=hidden;rotatable=0;points=[[0,0.5],[1,0.5]];portConstraint=eastwest;whiteSpace=wrap;html=1;" vertex="1" parent="vkAkZfnKyoBQVsPQu3A6-1">
          <mxGeometry y="26" width="160" height="54" as="geometry" />
        </mxCell>
        <mxCell id="vkAkZfnKyoBQVsPQu3A6-3" value="" style="line;strokeWidth=1;fillColor=none;align=left;verticalAlign=middle;spacingTop=-1;spacingLeft=3;spacingRight=3;rotatable=0;labelPosition=right;points=[];portConstraint=eastwest;strokeColor=inherit;" vertex="1" parent="vkAkZfnKyoBQVsPQu3A6-1">
          <mxGeometry y="80" width="160" height="8" as="geometry" />
        </mxCell>
        <mxCell id="vkAkZfnKyoBQVsPQu3A6-9" value="Raum&lt;br&gt;&amp;lt;&amp;lt;abstract&amp;gt;&amp;gt;" style="swimlane;fontStyle=1;align=center;verticalAlign=top;childLayout=stackLayout;horizontal=1;startSize=40;horizontalStack=0;resizeParent=1;resizeParentMax=0;resizeLast=0;collapsible=1;marginBottom=0;whiteSpace=wrap;html=1;" vertex="1" parent="1">
          <mxGeometry x="1057" y="90" width="230" height="154" as="geometry" />
        </mxCell>
        <mxCell id="vkAkZfnKyoBQVsPQu3A6-10" value="- name: String&lt;br&gt;- List&amp;lt;benachbarteRaum&amp;gt;:Raum" style="text;strokeColor=none;fillColor=none;align=left;verticalAlign=top;spacingLeft=4;spacingRight=4;overflow=hidden;rotatable=0;points=[[0,0.5],[1,0.5]];portConstraint=eastwest;whiteSpace=wrap;html=1;" vertex="1" parent="vkAkZfnKyoBQVsPQu3A6-9">
          <mxGeometry y="40" width="230" height="54" as="geometry" />
        </mxCell>
        <mxCell id="vkAkZfnKyoBQVsPQu3A6-11" value="" style="line;strokeWidth=1;fillColor=none;align=left;verticalAlign=middle;spacingTop=-1;spacingLeft=3;spacingRight=3;rotatable=0;labelPosition=right;points=[];portConstraint=eastwest;strokeColor=inherit;" vertex="1" parent="vkAkZfnKyoBQVsPQu3A6-9">
          <mxGeometry y="94" width="230" height="8" as="geometry" />
        </mxCell>
        <mxCell id="vkAkZfnKyoBQVsPQu3A6-12" value="+ nachbarRaumAnlegen(Raum):Raum" style="text;strokeColor=none;fillColor=none;align=left;verticalAlign=top;spacingLeft=4;spacingRight=4;overflow=hidden;rotatable=0;points=[[0,0.5],[1,0.5]];portConstraint=eastwest;whiteSpace=wrap;html=1;" vertex="1" parent="vkAkZfnKyoBQVsPQu3A6-9">
          <mxGeometry y="102" width="230" height="26" as="geometry" />
        </mxCell>
        <mxCell id="vkAkZfnKyoBQVsPQu3A6-102" value="+nachbarRaumLoeschen(Raum):Raum" style="text;strokeColor=none;fillColor=none;align=left;verticalAlign=top;spacingLeft=4;spacingRight=4;overflow=hidden;rotatable=0;points=[[0,0.5],[1,0.5]];portConstraint=eastwest;whiteSpace=wrap;html=1;" vertex="1" parent="vkAkZfnKyoBQVsPQu3A6-9">
          <mxGeometry y="128" width="230" height="26" as="geometry" />
        </mxCell>
        <mxCell id="vkAkZfnKyoBQVsPQu3A6-78" style="edgeStyle=orthogonalEdgeStyle;rounded=0;orthogonalLoop=1;jettySize=auto;html=1;entryX=1;entryY=0.5;entryDx=0;entryDy=0;endArrow=block;endFill=0;startArrow=none;startFill=0;" edge="1" parent="1" source="vkAkZfnKyoBQVsPQu3A6-13" target="vkAkZfnKyoBQVsPQu3A6-10">
          <mxGeometry relative="1" as="geometry" />
        </mxCell>
        <mxCell id="vkAkZfnKyoBQVsPQu3A6-13" value="Ausstellungsraum" style="swimlane;fontStyle=1;align=center;verticalAlign=top;childLayout=stackLayout;horizontal=1;startSize=26;horizontalStack=0;resizeParent=1;resizeParentMax=0;resizeLast=0;collapsible=1;marginBottom=0;whiteSpace=wrap;html=1;" vertex="1" parent="1">
          <mxGeometry x="1268" y="254" width="270" height="112" as="geometry" />
        </mxCell>
        <mxCell id="vkAkZfnKyoBQVsPQu3A6-14" value="+Liste&amp;lt;Kunstwerke&amp;gt;" style="text;strokeColor=none;fillColor=none;align=left;verticalAlign=top;spacingLeft=4;spacingRight=4;overflow=hidden;rotatable=0;points=[[0,0.5],[1,0.5]];portConstraint=eastwest;whiteSpace=wrap;html=1;" vertex="1" parent="vkAkZfnKyoBQVsPQu3A6-13">
          <mxGeometry y="26" width="270" height="26" as="geometry" />
        </mxCell>
        <mxCell id="vkAkZfnKyoBQVsPQu3A6-15" value="" style="line;strokeWidth=1;fillColor=none;align=left;verticalAlign=middle;spacingTop=-1;spacingLeft=3;spacingRight=3;rotatable=0;labelPosition=right;points=[];portConstraint=eastwest;strokeColor=inherit;" vertex="1" parent="vkAkZfnKyoBQVsPQu3A6-13">
          <mxGeometry y="52" width="270" height="8" as="geometry" />
        </mxCell>
        <mxCell id="vkAkZfnKyoBQVsPQu3A6-16" value="+kunstwerkHinzufuegen()" style="text;strokeColor=none;fillColor=none;align=left;verticalAlign=top;spacingLeft=4;spacingRight=4;overflow=hidden;rotatable=0;points=[[0,0.5],[1,0.5]];portConstraint=eastwest;whiteSpace=wrap;html=1;" vertex="1" parent="vkAkZfnKyoBQVsPQu3A6-13">
          <mxGeometry y="60" width="270" height="26" as="geometry" />
        </mxCell>
        <mxCell id="vkAkZfnKyoBQVsPQu3A6-103" value="+kunstwerkEntpfernen(Kunststueck):void" style="text;strokeColor=none;fillColor=none;align=left;verticalAlign=top;spacingLeft=4;spacingRight=4;overflow=hidden;rotatable=0;points=[[0,0.5],[1,0.5]];portConstraint=eastwest;whiteSpace=wrap;html=1;" vertex="1" parent="vkAkZfnKyoBQVsPQu3A6-13">
          <mxGeometry y="86" width="270" height="26" as="geometry" />
        </mxCell>
        <mxCell id="vkAkZfnKyoBQVsPQu3A6-21" value="Person&lt;br&gt;&amp;lt;&amp;lt;Abstrakt&amp;gt;&amp;gt;" style="swimlane;fontStyle=1;align=center;verticalAlign=top;childLayout=stackLayout;horizontal=1;startSize=50;horizontalStack=0;resizeParent=1;resizeParentMax=0;resizeLast=0;collapsible=1;marginBottom=0;whiteSpace=wrap;html=1;" vertex="1" parent="1">
          <mxGeometry x="753" y="260" width="192" height="134" as="geometry" />
        </mxCell>
        <mxCell id="vkAkZfnKyoBQVsPQu3A6-22" value="- personName: String" style="text;strokeColor=none;fillColor=none;align=left;verticalAlign=top;spacingLeft=4;spacingRight=4;overflow=hidden;rotatable=0;points=[[0,0.5],[1,0.5]];portConstraint=eastwest;whiteSpace=wrap;html=1;" vertex="1" parent="vkAkZfnKyoBQVsPQu3A6-21">
          <mxGeometry y="50" width="192" height="26" as="geometry" />
        </mxCell>
        <mxCell id="vkAkZfnKyoBQVsPQu3A6-23" value="" style="line;strokeWidth=1;fillColor=none;align=left;verticalAlign=middle;spacingTop=-1;spacingLeft=3;spacingRight=3;rotatable=0;labelPosition=right;points=[];portConstraint=eastwest;strokeColor=inherit;" vertex="1" parent="vkAkZfnKyoBQVsPQu3A6-21">
          <mxGeometry y="76" width="192" height="8" as="geometry" />
        </mxCell>
        <mxCell id="vkAkZfnKyoBQVsPQu3A6-24" value="+ raumBetreten(Raum):Raum&lt;br&gt;+ raumVerlassen(Raum):void" style="text;strokeColor=none;fillColor=none;align=left;verticalAlign=top;spacingLeft=4;spacingRight=4;overflow=hidden;rotatable=0;points=[[0,0.5],[1,0.5]];portConstraint=eastwest;whiteSpace=wrap;html=1;" vertex="1" parent="vkAkZfnKyoBQVsPQu3A6-21">
          <mxGeometry y="84" width="192" height="50" as="geometry" />
        </mxCell>
        <mxCell id="vkAkZfnKyoBQVsPQu3A6-88" style="edgeStyle=orthogonalEdgeStyle;rounded=0;orthogonalLoop=1;jettySize=auto;html=1;entryX=0;entryY=0.5;entryDx=0;entryDy=0;endArrow=block;endFill=0;" edge="1" parent="1" source="vkAkZfnKyoBQVsPQu3A6-29" target="vkAkZfnKyoBQVsPQu3A6-22">
          <mxGeometry relative="1" as="geometry" />
        </mxCell>
        <mxCell id="vkAkZfnKyoBQVsPQu3A6-29" value="WÃ¤chter" style="swimlane;fontStyle=1;align=center;verticalAlign=top;childLayout=stackLayout;horizontal=1;startSize=26;horizontalStack=0;resizeParent=1;resizeParentMax=0;resizeLast=0;collapsible=1;marginBottom=0;whiteSpace=wrap;html=1;" vertex="1" parent="1">
          <mxGeometry x="421" y="293" width="222" height="60" as="geometry" />
        </mxCell>
        <mxCell id="vkAkZfnKyoBQVsPQu3A6-31" value="" style="line;strokeWidth=1;fillColor=none;align=left;verticalAlign=middle;spacingTop=-1;spacingLeft=3;spacingRight=3;rotatable=0;labelPosition=right;points=[];portConstraint=eastwest;strokeColor=inherit;" vertex="1" parent="vkAkZfnKyoBQVsPQu3A6-29">
          <mxGeometry y="26" width="222" height="8" as="geometry" />
        </mxCell>
        <mxCell id="vkAkZfnKyoBQVsPQu3A6-32" value="+raumUeberwachen(Raum):Raum" style="text;strokeColor=none;fillColor=none;align=left;verticalAlign=top;spacingLeft=4;spacingRight=4;overflow=hidden;rotatable=0;points=[[0,0.5],[1,0.5]];portConstraint=eastwest;whiteSpace=wrap;html=1;" vertex="1" parent="vkAkZfnKyoBQVsPQu3A6-29">
          <mxGeometry y="34" width="222" height="26" as="geometry" />
        </mxCell>
        <mxCell id="vkAkZfnKyoBQVsPQu3A6-33" value="Dieb" style="swimlane;fontStyle=1;align=center;verticalAlign=top;childLayout=stackLayout;horizontal=1;startSize=26;horizontalStack=0;resizeParent=1;resizeParentMax=0;resizeLast=0;collapsible=1;marginBottom=0;whiteSpace=wrap;html=1;" vertex="1" parent="1">
          <mxGeometry x="735" y="575" width="229" height="60" as="geometry" />
        </mxCell>
        <mxCell id="vkAkZfnKyoBQVsPQu3A6-35" value="" style="line;strokeWidth=1;fillColor=none;align=left;verticalAlign=middle;spacingTop=-1;spacingLeft=3;spacingRight=3;rotatable=0;labelPosition=right;points=[];portConstraint=eastwest;strokeColor=inherit;" vertex="1" parent="vkAkZfnKyoBQVsPQu3A6-33">
          <mxGeometry y="26" width="229" height="8" as="geometry" />
        </mxCell>
        <mxCell id="vkAkZfnKyoBQVsPQu3A6-36" value="+kunstwerkStehlen(Kunstwerk):void" style="text;strokeColor=none;fillColor=none;align=left;verticalAlign=top;spacingLeft=4;spacingRight=4;overflow=hidden;rotatable=0;points=[[0,0.5],[1,0.5]];portConstraint=eastwest;whiteSpace=wrap;html=1;" vertex="1" parent="vkAkZfnKyoBQVsPQu3A6-33">
          <mxGeometry y="34" width="229" height="26" as="geometry" />
        </mxCell>
        <mxCell id="vkAkZfnKyoBQVsPQu3A6-67" value="Gang" style="swimlane;fontStyle=1;align=center;verticalAlign=top;childLayout=stackLayout;horizontal=1;startSize=26;horizontalStack=0;resizeParent=1;resizeParentMax=0;resizeLast=0;collapsible=1;marginBottom=0;whiteSpace=wrap;html=1;" vertex="1" parent="1">
          <mxGeometry x="1092" y="310" width="160" height="34" as="geometry" />
        </mxCell>
        <mxCell id="vkAkZfnKyoBQVsPQu3A6-69" value="" style="line;strokeWidth=1;fillColor=none;align=left;verticalAlign=middle;spacingTop=-1;spacingLeft=3;spacingRight=3;rotatable=0;labelPosition=right;points=[];portConstraint=eastwest;strokeColor=inherit;" vertex="1" parent="vkAkZfnKyoBQVsPQu3A6-67">
          <mxGeometry y="26" width="160" height="8" as="geometry" />
        </mxCell>
        <mxCell id="vkAkZfnKyoBQVsPQu3A6-72" value="Kunstwerke" style="swimlane;fontStyle=1;align=center;verticalAlign=top;childLayout=stackLayout;horizontal=1;startSize=26;horizontalStack=0;resizeParent=1;resizeParentMax=0;resizeLast=0;collapsible=1;marginBottom=0;whiteSpace=wrap;html=1;" vertex="1" parent="1">
          <mxGeometry x="1333" y="470" width="160" height="86" as="geometry" />
        </mxCell>
        <mxCell id="vkAkZfnKyoBQVsPQu3A6-73" value="+bezeichnung:String" style="text;strokeColor=none;fillColor=none;align=left;verticalAlign=top;spacingLeft=4;spacingRight=4;overflow=hidden;rotatable=0;points=[[0,0.5],[1,0.5]];portConstraint=eastwest;whiteSpace=wrap;html=1;" vertex="1" parent="vkAkZfnKyoBQVsPQu3A6-72">
          <mxGeometry y="26" width="160" height="26" as="geometry" />
        </mxCell>
        <mxCell id="vkAkZfnKyoBQVsPQu3A6-74" value="" style="line;strokeWidth=1;fillColor=none;align=left;verticalAlign=middle;spacingTop=-1;spacingLeft=3;spacingRight=3;rotatable=0;labelPosition=right;points=[];portConstraint=eastwest;strokeColor=inherit;" vertex="1" parent="vkAkZfnKyoBQVsPQu3A6-72">
          <mxGeometry y="52" width="160" height="8" as="geometry" />
        </mxCell>
        <mxCell id="vkAkZfnKyoBQVsPQu3A6-75" value="+ method(type): type" style="text;strokeColor=none;fillColor=none;align=left;verticalAlign=top;spacingLeft=4;spacingRight=4;overflow=hidden;rotatable=0;points=[[0,0.5],[1,0.5]];portConstraint=eastwest;whiteSpace=wrap;html=1;" vertex="1" parent="vkAkZfnKyoBQVsPQu3A6-72">
          <mxGeometry y="60" width="160" height="26" as="geometry" />
        </mxCell>
        <mxCell id="vkAkZfnKyoBQVsPQu3A6-77" style="edgeStyle=orthogonalEdgeStyle;rounded=0;orthogonalLoop=1;jettySize=auto;html=1;startArrow=block;startFill=0;endArrow=none;endFill=0;entryX=0.5;entryY=0;entryDx=0;entryDy=0;" edge="1" parent="1" source="vkAkZfnKyoBQVsPQu3A6-9" target="vkAkZfnKyoBQVsPQu3A6-67">
          <mxGeometry relative="1" as="geometry">
            <mxPoint x="1148" y="250" as="targetPoint" />
          </mxGeometry>
        </mxCell>
        <mxCell id="vkAkZfnKyoBQVsPQu3A6-79" style="edgeStyle=orthogonalEdgeStyle;rounded=0;orthogonalLoop=1;jettySize=auto;html=1;entryX=0.436;entryY=0.031;entryDx=0;entryDy=0;entryPerimeter=0;endArrow=none;endFill=0;startArrow=diamondThin;startFill=0;" edge="1" parent="1" source="vkAkZfnKyoBQVsPQu3A6-13" target="vkAkZfnKyoBQVsPQu3A6-72">
          <mxGeometry relative="1" as="geometry" />
        </mxCell>
        <mxCell id="vkAkZfnKyoBQVsPQu3A6-81" value="Notiz: Eingang ist Gang Nummer 1, deshalb keine eigene Klasse" style="whiteSpace=wrap;html=1;" vertex="1" parent="1">
          <mxGeometry x="1095" y="353" width="160" height="75" as="geometry" />
        </mxCell>
        <mxCell id="vkAkZfnKyoBQVsPQu3A6-89" style="edgeStyle=orthogonalEdgeStyle;rounded=0;orthogonalLoop=1;jettySize=auto;html=1;exitX=0.5;exitY=0;exitDx=0;exitDy=0;entryX=0.5;entryY=1;entryDx=0;entryDy=0;endArrow=block;endFill=0;" edge="1" parent="1" source="vkAkZfnKyoBQVsPQu3A6-83" target="vkAkZfnKyoBQVsPQu3A6-21">
          <mxGeometry relative="1" as="geometry" />
        </mxCell>
        <mxCell id="vkAkZfnKyoBQVsPQu3A6-91" style="edgeStyle=orthogonalEdgeStyle;rounded=0;orthogonalLoop=1;jettySize=auto;html=1;entryX=0.5;entryY=0;entryDx=0;entryDy=0;endArrow=none;endFill=0;startArrow=block;startFill=0;" edge="1" parent="1" source="vkAkZfnKyoBQVsPQu3A6-83" target="vkAkZfnKyoBQVsPQu3A6-33">
          <mxGeometry relative="1" as="geometry" />
        </mxCell>
        <mxCell id="vkAkZfnKyoBQVsPQu3A6-83" value="Gast" style="swimlane;fontStyle=1;align=center;verticalAlign=top;childLayout=stackLayout;horizontal=1;startSize=26;horizontalStack=0;resizeParent=1;resizeParentMax=0;resizeLast=0;collapsible=1;marginBottom=0;whiteSpace=wrap;html=1;" vertex="1" parent="1">
          <mxGeometry x="733" y="445" width="232" height="60" as="geometry" />
        </mxCell>
        <mxCell id="vkAkZfnKyoBQVsPQu3A6-85" value="" style="line;strokeWidth=1;fillColor=none;align=left;verticalAlign=middle;spacingTop=-1;spacingLeft=3;spacingRight=3;rotatable=0;labelPosition=right;points=[];portConstraint=eastwest;strokeColor=inherit;" vertex="1" parent="vkAkZfnKyoBQVsPQu3A6-83">
          <mxGeometry y="26" width="232" height="8" as="geometry" />
        </mxCell>
        <mxCell id="vkAkZfnKyoBQVsPQu3A6-86" value="&lt;span style=&quot;color: rgb(0, 0, 0); font-family: Helvetica; font-size: 12px; font-style: normal; font-variant-ligatures: normal; font-variant-caps: normal; font-weight: 400; letter-spacing: normal; orphans: 2; text-align: left; text-indent: 0px; text-transform: none; widows: 2; word-spacing: 0px; -webkit-text-stroke-width: 0px; background-color: rgb(251, 251, 251); text-decoration-thickness: initial; text-decoration-style: initial; text-decoration-color: initial; float: none; display: inline !important;&quot;&gt;+ beobachten(Kunstwerk):void&lt;/span&gt;&lt;div&gt;&lt;br&gt;&lt;/div&gt;" style="text;strokeColor=none;fillColor=none;align=left;verticalAlign=top;spacingLeft=4;spacingRight=4;overflow=hidden;rotatable=0;points=[[0,0.5],[1,0.5]];portConstraint=eastwest;whiteSpace=wrap;html=1;" vertex="1" parent="vkAkZfnKyoBQVsPQu3A6-83">
          <mxGeometry y="34" width="232" height="26" as="geometry" />
        </mxCell>
        <mxCell id="vkAkZfnKyoBQVsPQu3A6-93" value="1..*" style="whiteSpace=wrap;html=1;" vertex="1" parent="1">
          <mxGeometry x="1020" y="170" width="30" height="30" as="geometry" />
        </mxCell>
        <mxCell id="vkAkZfnKyoBQVsPQu3A6-94" value="1" style="whiteSpace=wrap;html=1;" vertex="1" parent="1">
          <mxGeometry x="960" y="170" width="30" height="30" as="geometry" />
        </mxCell>
        <mxCell id="vkAkZfnKyoBQVsPQu3A6-95" value="1..*" style="whiteSpace=wrap;html=1;" vertex="1" parent="1">
          <mxGeometry x="1420" y="430" width="30" height="30" as="geometry" />
        </mxCell>
        <mxCell id="vkAkZfnKyoBQVsPQu3A6-96" value="1" style="whiteSpace=wrap;html=1;" vertex="1" parent="1">
          <mxGeometry x="1420" y="380" width="30" height="30" as="geometry" />
        </mxCell>
        <mxCell id="vkAkZfnKyoBQVsPQu3A6-98" style="edgeStyle=orthogonalEdgeStyle;rounded=0;orthogonalLoop=1;jettySize=auto;html=1;entryX=-0.01;entryY=0.116;entryDx=0;entryDy=0;entryPerimeter=0;endArrow=diamondThin;endFill=1;" edge="1" parent="1" source="vkAkZfnKyoBQVsPQu3A6-2" target="vkAkZfnKyoBQVsPQu3A6-10">
          <mxGeometry relative="1" as="geometry" />
        </mxCell>
        <mxCell id="vkAkZfnKyoBQVsPQu3A6-104" style="edgeStyle=orthogonalEdgeStyle;rounded=0;orthogonalLoop=1;jettySize=auto;html=1;entryX=0.411;entryY=0.978;entryDx=0;entryDy=0;entryPerimeter=0;endArrow=diamondThin;endFill=0;" edge="1" parent="1" source="vkAkZfnKyoBQVsPQu3A6-21" target="vkAkZfnKyoBQVsPQu3A6-3">
          <mxGeometry relative="1" as="geometry" />
        </mxCell>
        <mxCell id="vkAkZfnKyoBQVsPQu3A6-118" value="0..*" style="whiteSpace=wrap;html=1;" vertex="1" parent="1">
          <mxGeometry x="863" y="224" width="30" height="30" as="geometry" />
        </mxCell>
        <mxCell id="vkAkZfnKyoBQVsPQu3A6-119" value="0" style="whiteSpace=wrap;html=1;" vertex="1" parent="1">
          <mxGeometry x="862" y="174" width="30" height="30" as="geometry" />
        </mxCell>
        <mxCell id="vkAkZfnKyoBQVsPQu3A6-126" value="Alle Abstraktionen benÃ¶tigen keine Beziehungen, weil die Abstraktion schon beinhaltet bzw. definiert" style="whiteSpace=wrap;html=1;" vertex="1" parent="1">
          <mxGeometry x="1420" y="151.5" width="160" height="75" as="geometry" />
        </mxCell>
        <mxCell id="vkAkZfnKyoBQVsPQu3A6-127" value="Dieb ist ein Gast, der zufÃ¤llig klaut" style="whiteSpace=wrap;html=1;" vertex="1" parent="1">
          <mxGeometry x="547" y="576.5" width="160" height="57" as="geometry" />
        </mxCell>
        <mxCell id="vkAkZfnKyoBQVsPQu3A6-128" value="Gast kann nur Kunstwerke beobachten" style="whiteSpace=wrap;html=1;" vertex="1" parent="1">
          <mxGeometry x="547" y="446.5" width="160" height="57" as="geometry" />
        </mxCell>
        <mxCell id="vkAkZfnKyoBQVsPQu3A6-129" value="Es kann niemand oder jemand im Museum sein." style="whiteSpace=wrap;html=1;" vertex="1" parent="1">
          <mxGeometry x="610" y="174" width="160" height="57" as="geometry" />
        </mxCell>
        <mxCell id="vkAkZfnKyoBQVsPQu3A6-130" value="Ein Museum hat mehrere RÃ¤ume, mindest einen" style="whiteSpace=wrap;html=1;" vertex="1" parent="1">
          <mxGeometry x="964" y="64" width="76" height="67" as="geometry" />
        </mxCell>
        <mxCell id="vkAkZfnKyoBQVsPQu3A6-132" style="edgeStyle=orthogonalEdgeStyle;rounded=0;orthogonalLoop=1;jettySize=auto;html=1;entryX=1;entryY=0.5;entryDx=0;entryDy=0;endArrow=none;endFill=0;" edge="1" parent="1" source="vkAkZfnKyoBQVsPQu3A6-102" target="vkAkZfnKyoBQVsPQu3A6-22">
          <mxGeometry relative="1" as="geometry" />
        </mxCell>
        <mxCell id="vkAkZfnKyoBQVsPQu3A6-134" style="edgeStyle=orthogonalEdgeStyle;rounded=0;orthogonalLoop=1;jettySize=auto;html=1;entryX=1.004;entryY=0.081;entryDx=0;entryDy=0;entryPerimeter=0;endArrow=none;endFill=0;" edge="1" parent="1" source="vkAkZfnKyoBQVsPQu3A6-9" target="vkAkZfnKyoBQVsPQu3A6-9">
          <mxGeometry relative="1" as="geometry" />
        </mxCell>
      </root>
    </mxGraphModel>
  </diagram>
</mxfile>
